<?xml version="1.0" encoding="utf-8"?>
<!-- Generator: Adobe Illustrator 17.0.0, SVG Export Plug-In . SVG Version: 6.00 Build 0)  -->
<!DOCTYPE svg PUBLIC "-//W3C//DTD SVG 1.1//EN" "http://www.w3.org/Graphics/SVG/1.1/DTD/svg11.dtd">
<svg version="1.1" id="Layer_1" xmlns="http://www.w3.org/2000/svg" xmlns:xlink="http://www.w3.org/1999/xlink" x="0px" y="0px"
	 width="36.582px" height="27.195px" viewBox="0 0 36.582 27.195" enable-background="new 0 0 36.582 27.195" xml:space="preserve">
<path fill="#273C3D" d="M17.437,3.162c-0.148,0.149-0.447,0.092-0.667-0.127l0,0c-0.22-0.22-0.277-0.519-0.128-0.668l2.01-2.01
	c0.149-0.149,0.448-0.092,0.668,0.128l0,0c0.22,0.22,0.276,0.519,0.128,0.668L17.437,3.162z"/>
<path fill="#273C3D" d="M31.215,3.162c0.148,0.149,0.447,0.092,0.667-0.127l0,0c0.22-0.22,0.277-0.519,0.128-0.668L30,0.357
	c-0.149-0.149-0.448-0.092-0.668,0.128l0,0c-0.22,0.22-0.276,0.519-0.128,0.668L31.215,3.162z"/>
<path fill="#273C3D" d="M30.19,0.75c0,0.276-0.213,0.5-0.478,0.5H18.98c-0.265,0-0.478-0.224-0.478-0.5l0,0
	c0-0.276,0.213-0.5,0.478-0.5h10.732C29.977,0.25,30.19,0.473,30.19,0.75L30.19,0.75z"/>
<path fill="#273C3D" d="M4.586,1.375c0-0.276,0.224-0.5,0.5-0.5l0,0c0.276,0,0.5,0.224,0.5,0.5V2.75c0,0.276-0.224,0.5-0.5,0.5l0,0
	c-0.276,0-0.5-0.224-0.5-0.5V1.375z"/>
<path fill="#273C3D" d="M8.17,1.333c0-0.276,0.224-0.5,0.5-0.5l0,0c0.276,0,0.5,0.224,0.5,0.5v1.375c0,0.276-0.224,0.5-0.5,0.5l0,0
	c-0.276,0-0.5-0.224-0.5-0.5V1.333z"/>
<path fill="#273C3D" d="M4.586,1.307c0-0.265,0.229-0.479,0.513-0.479h3.559c0.283,0,0.513,0.214,0.513,0.479l0,0
	c0,0.265-0.229,0.479-0.513,0.479H5.099C4.815,1.786,4.586,1.572,4.586,1.307L4.586,1.307z"/>
<g>
	<path fill="none" stroke="#273C3D" stroke-miterlimit="10" d="M35.961,23.5c0,1.65-1.35,3-3,3H3.794c-1.65,0-3-1.35-3-3V5.833
		c0-1.65,1.35-3,3-3h29.167c1.65,0,3,1.35,3,3V23.5z"/>
</g>
<circle fill="none" stroke="#273C3D" stroke-miterlimit="10" cx="24.295" cy="14.667" r="8.5"/>
<circle fill="none" stroke="#273C3D" stroke-miterlimit="10" cx="24.295" cy="14.667" r="6.417"/>
<circle fill="none" stroke="#273C3D" stroke-miterlimit="10" cx="7.211" cy="9.083" r="2.083"/>
<path fill="#273C3D" d="M11.794,16.937c0,0.265-0.215,0.479-0.479,0.479H5.106c-0.265,0-0.479-0.214-0.479-0.479l0,0
	c0-0.265,0.215-0.479,0.479-0.479h6.208C11.579,16.458,11.794,16.673,11.794,16.937L11.794,16.937z"/>
<path fill="#273C3D" d="M13.211,19.104c0,0.265-0.257,0.479-0.574,0.479H5.201c-0.317,0-0.574-0.214-0.574-0.479l0,0
	c0-0.265,0.257-0.479,0.574-0.479h7.436C12.954,18.625,13.211,18.84,13.211,19.104L13.211,19.104z"/>
<path fill="#273C3D" d="M14.878,21.396c0,0.265-0.308,0.479-0.688,0.479H5.275c-0.381,0-0.688-0.214-0.688-0.479l0,0
	c0-0.265,0.308-0.479,0.688-0.479h8.915C14.57,20.917,14.878,21.132,14.878,21.396L14.878,21.396z"/>
<path fill="none" stroke="#273C3D" stroke-miterlimit="10" d="M3.624,7.53c0.6-1.39,1.979-2.36,3.59-2.36s2.99,0.97,3.59,2.36"/>
</svg>
