<?xml version="1.0" encoding="utf-8"?>
<!-- Generator: Adobe Illustrator 17.0.0, SVG Export Plug-In . SVG Version: 6.00 Build 0)  -->
<!DOCTYPE svg PUBLIC "-//W3C//DTD SVG 1.1//EN" "http://www.w3.org/Graphics/SVG/1.1/DTD/svg11.dtd">
<svg version="1.1" id="Layer_1" xmlns="http://www.w3.org/2000/svg" xmlns:xlink="http://www.w3.org/1999/xlink" x="0px" y="0px"
	 width="69.231px" height="40.476px" viewBox="0 0 69.231 40.476" enable-background="new 0 0 69.231 40.476" xml:space="preserve">
<g>
	<g>
		<path fill="none" stroke="#F4F4EB" stroke-miterlimit="10" d="M8.427,33.481V2.892c0-1.1,0.9-2,2-2h49.339c1.1,0,2,0.9,2,2v30.589
			"/>
	</g>
	<rect x="11.763" y="4.39" fill="none" stroke="#F4F4EB" stroke-miterlimit="10" width="46.555" height="26.413"/>
	<circle fill="#F4F4EB" cx="34.886" cy="2.581" r="0.488"/>
	
		<rect x="51.865" y="5.47" transform="matrix(-0.7073 -0.7069 0.7069 -0.7073 88.1844 48.3777)" fill="#F4F4EB" width="4.486" height="0.925"/>
	
		<rect x="48.009" y="6.992" transform="matrix(-0.7071 -0.7071 0.7071 -0.7071 84.0744 49.7325)" fill="#F4F4EB" width="8.657" height="0.924"/>
	<polygon fill="#F4F4EB" points="54.53,13.924 45.157,4.554 45.815,3.902 55.186,13.271 	"/>
	<g>
		<path fill="none" stroke="#F4F4EB" stroke-miterlimit="10" d="M68.388,36.33c0,0.55-0.45,1-1,1H2.022c-0.55,0-1-0.45-1-1v-1.393
			c0-0.55,0.45-1,1-1h65.366c0.55,0,1,0.45,1,1V36.33z"/>
	</g>
	<line fill="none" stroke="#F4F4EB" stroke-miterlimit="10" x1="1.587" y1="37.175" x2="4.773" y2="39.333"/>
	<line fill="none" stroke="#F4F4EB" stroke-miterlimit="10" x1="4.464" y1="39.385" x2="64.716" y2="39.385"/>
	<line fill="none" stroke="#F4F4EB" stroke-miterlimit="10" x1="64.354" y1="39.46" x2="67.542" y2="37.303"/>
</g>
</svg>
