<?xml version="1.0" encoding="utf-8"?>
<!-- Generator: Adobe Illustrator 17.0.0, SVG Export Plug-In . SVG Version: 6.00 Build 0)  -->
<!DOCTYPE svg PUBLIC "-//W3C//DTD SVG 1.1//EN" "http://www.w3.org/Graphics/SVG/1.1/DTD/svg11.dtd">
<svg version="1.1" id="Layer_1" xmlns="http://www.w3.org/2000/svg" xmlns:xlink="http://www.w3.org/1999/xlink" x="0px" y="0px"
	 width="33.439px" height="23.886px" viewBox="0 0 33.439 23.886" enable-background="new 0 0 33.439 23.886" xml:space="preserve">
<g>
	<path fill="none" stroke="#F4F4EB" stroke-miterlimit="10" d="M31.788,0.813c0.55,0,1,0.45,1,1v20.27c0,0.55-0.45,1-1,1H1.708
		c-0.55,0-1-0.45-1-1V1.813c0-0.55,0.45-1,1-1H31.788z"/>
</g>
<g>
	<path fill="none" stroke="#F4F4EB" stroke-miterlimit="10" d="M27.821,0.813c2.2,0,4,0.116,4,0.258s-1.24,1.562-2.756,3.157
		l-9.49,9.987c-1.516,1.595-3.995,1.595-5.511-0.001L4.107,3.73C2.591,2.134,1.352,0.826,1.352,0.821c0-0.004,1.8-0.008,4-0.008
		H27.821z"/>
</g>
<path fill="#F4F4EB" d="M1.798,22.549c-0.22,0.221-0.567,0.228-0.776,0.018l0,0c-0.211-0.209-0.203-0.557,0.017-0.776l8.575-8.575
	c0.219-0.219,0.566-0.227,0.777-0.018l0,0c0.209,0.21,0.201,0.558-0.018,0.777L1.798,22.549z"/>
<path fill="#F4F4EB" d="M31.635,22.656c0.219,0.221,0.566,0.228,0.776,0.018l0,0c0.21-0.209,0.202-0.557-0.017-0.776l-8.576-8.575
	c-0.219-0.219-0.566-0.227-0.776-0.018l0,0c-0.21,0.21-0.202,0.558,0.017,0.777L31.635,22.656z"/>
<path fill="none" stroke="#F4F4EB" stroke-miterlimit="10" d="M11.948,4.255c0,1.201-0.974,2.175-2.175,2.175l0,0
	c-1.202,0-2.175-0.974-2.175-2.175l0,0c0-1.201,0.973-2.175,2.175-2.175l0,0C10.974,2.08,11.948,3.054,11.948,4.255L11.948,4.255z"
	/>
<path fill="#F4F4EB" d="M18.631,3.006c0,0.259-0.21,0.469-0.469,0.469H13.35c-0.259,0-0.469-0.21-0.469-0.469l0,0
	c0-0.259,0.21-0.469,0.469-0.469h4.812C18.421,2.537,18.631,2.747,18.631,3.006L18.631,3.006z"/>
<path fill="#F4F4EB" d="M20.663,4.412c0,0.259-0.21,0.469-0.469,0.469h-5.531c-0.259,0-0.469-0.21-0.469-0.469l0,0
	c0-0.259,0.21-0.469,0.469-0.469h5.531C20.453,3.944,20.663,4.153,20.663,4.412L20.663,4.412z"/>
<path fill="#F4F4EB" d="M19.069,5.944c0,0.259-0.21,0.469-0.469,0.469h-5.219c-0.259,0-0.469-0.21-0.469-0.469l0,0
	c0-0.259,0.21-0.469,0.469-0.469H18.6C18.859,5.475,19.069,5.685,19.069,5.944L19.069,5.944z"/>
</svg>
