<?xml version="1.0" encoding="utf-8"?>
<!-- Generator: Adobe Illustrator 17.0.0, SVG Export Plug-In . SVG Version: 6.00 Build 0)  -->
<!DOCTYPE svg PUBLIC "-//W3C//DTD SVG 1.1//EN" "http://www.w3.org/Graphics/SVG/1.1/DTD/svg11.dtd">
<svg version="1.1" id="Layer_1" xmlns="http://www.w3.org/2000/svg" xmlns:xlink="http://www.w3.org/1999/xlink" x="0px" y="0px"
	 width="29.412px" height="24.632px" viewBox="0 0 29.412 24.632" enable-background="new 0 0 29.412 24.632" xml:space="preserve">
<path fill="none" stroke="#241626" stroke-miterlimit="10" d="M25.801,16.813c1.68-1.67,2.73-4,2.73-6.56
	c0-5.11-4.15-9.25-9.25-9.25h-8.84c-2.55,0-4.86,1.03-6.54,2.71c-1.67,1.67-2.71,3.979-2.71,6.54c0,5.11,4.15,9.25,9.25,9.25h7.66"
	/>
<path fill="none" stroke="#241626" stroke-miterlimit="10" d="M18.005,19.498c0,0,4.187,0.326,3.642,3.302
	c-0.536,2.978,0.374-1.604,4.355-6.205"/>
<path fill="none" stroke="#241626" stroke-miterlimit="10" d="M10.028,10.423c0,1.059-0.858,1.916-1.917,1.916l0,0
	c-1.059,0-1.917-0.857-1.917-1.916l0,0c0-1.059,0.858-1.917,1.917-1.917l0,0C9.17,8.506,10.028,9.364,10.028,10.423L10.028,10.423z"
	/>
<path fill="none" stroke="#241626" stroke-miterlimit="10" d="M16.278,10.34c0,1.059-0.858,1.916-1.917,1.916l0,0
	c-1.059,0-1.917-0.857-1.917-1.916l0,0c0-1.059,0.858-1.917,1.917-1.917l0,0C15.42,8.423,16.278,9.281,16.278,10.34L16.278,10.34z"
	/>
<path fill="none" stroke="#241626" stroke-miterlimit="10" d="M22.611,10.423c0,1.059-0.858,1.916-1.917,1.916l0,0
	c-1.059,0-1.917-0.857-1.917-1.916l0,0c0-1.059,0.858-1.917,1.917-1.917l0,0C21.753,8.506,22.611,9.364,22.611,10.423L22.611,10.423
	z"/>
</svg>
